<svg width="295" height="25" viewBox="0 0 295 25" fill="none" xmlns="http://www.w3.org/2000/svg">
<path d="M11.466 20.07C11.574 20.25 11.628 20.424 11.628 20.592C11.628 20.808 11.544 20.982 11.376 21.114C11.208 21.258 11.01 21.33 10.782 21.33C10.398 21.33 10.092 21.15 9.864 20.79L8.82 19.062C8.436 18.45 7.806 18.144 6.93 18.144C5.73 18.144 4.686 17.88 3.798 17.352C2.922 16.824 2.244 16.074 1.764 15.102C1.284 14.13 1.044 12.984 1.044 11.664C1.044 10.332 1.278 9.18 1.746 8.208C2.226 7.224 2.91 6.474 3.798 5.958C4.686 5.43 5.73 5.166 6.93 5.166C8.142 5.166 9.192 5.43 10.08 5.958C10.968 6.474 11.646 7.224 12.114 8.208C12.594 9.18 12.834 10.326 12.834 11.646C12.834 13.122 12.534 14.388 11.934 15.444C11.334 16.488 10.488 17.232 9.396 17.676C9.912 17.844 10.362 18.246 10.746 18.882L11.466 20.07ZM2.934 11.646C2.934 13.242 3.282 14.472 3.978 15.336C4.686 16.2 5.67 16.632 6.93 16.632C8.202 16.632 9.192 16.2 9.9 15.336C10.608 14.472 10.962 13.242 10.962 11.646C10.962 10.05 10.608 8.826 9.9 7.974C9.204 7.11 8.214 6.678 6.93 6.678C5.67 6.678 4.686 7.11 3.978 7.974C3.282 8.826 2.934 10.05 2.934 11.646ZM21.9507 9.036C22.2267 9.036 22.4427 9.114 22.5987 9.27C22.7667 9.426 22.8507 9.642 22.8507 9.918V17.244C22.8507 17.496 22.7667 17.7 22.5987 17.856C22.4307 18.012 22.2087 18.09 21.9327 18.09C21.6807 18.09 21.4767 18.018 21.3207 17.874C21.1647 17.718 21.0867 17.514 21.0867 17.262V16.578C20.8107 17.082 20.4267 17.466 19.9347 17.73C19.4547 17.994 18.9147 18.126 18.3147 18.126C16.1787 18.126 15.1107 16.95 15.1107 14.598V9.918C15.1107 9.642 15.1887 9.426 15.3447 9.27C15.5127 9.114 15.7407 9.036 16.0287 9.036C16.3047 9.036 16.5207 9.114 16.6767 9.27C16.8447 9.426 16.9287 9.642 16.9287 9.918V14.58C16.9287 15.288 17.0727 15.81 17.3607 16.146C17.6487 16.482 18.0927 16.65 18.6927 16.65C19.4007 16.65 19.9647 16.422 20.3847 15.966C20.8167 15.51 21.0327 14.904 21.0327 14.148V9.918C21.0327 9.654 21.1167 9.444 21.2847 9.288C21.4527 9.12 21.6747 9.036 21.9507 9.036ZM26.3128 18.09C26.0488 18.09 25.8268 18.018 25.6468 17.874C25.4788 17.73 25.3948 17.514 25.3948 17.226V9.918C25.3948 9.63 25.4788 9.414 25.6468 9.27C25.8268 9.114 26.0488 9.036 26.3128 9.036C26.5768 9.036 26.7928 9.114 26.9608 9.27C27.1288 9.414 27.2128 9.63 27.2128 9.918V17.226C27.2128 17.514 27.1288 17.73 26.9608 17.874C26.7928 18.018 26.5768 18.09 26.3128 18.09ZM26.3128 7.272C25.9648 7.272 25.6888 7.176 25.4848 6.984C25.2808 6.792 25.1788 6.54 25.1788 6.228C25.1788 5.916 25.2808 5.67 25.4848 5.49C25.6888 5.298 25.9648 5.202 26.3128 5.202C26.6488 5.202 26.9188 5.298 27.1228 5.49C27.3388 5.67 27.4468 5.916 27.4468 6.228C27.4468 6.54 27.3448 6.792 27.1408 6.984C26.9368 7.176 26.6608 7.272 26.3128 7.272ZM33.5161 18.126C32.6641 18.126 31.9141 17.94 31.2661 17.568C30.6301 17.196 30.1321 16.668 29.7721 15.984C29.4241 15.3 29.2501 14.508 29.2501 13.608C29.2501 12.696 29.4301 11.892 29.7901 11.196C30.1621 10.5 30.6781 9.96 31.3381 9.576C31.9981 9.192 32.7541 9 33.6061 9C34.0621 9 34.5181 9.066 34.9741 9.198C35.4421 9.33 35.8561 9.51 36.2161 9.738C36.6001 10.002 36.7921 10.308 36.7921 10.656C36.7921 10.86 36.7381 11.034 36.6301 11.178C36.5221 11.31 36.3841 11.376 36.2161 11.376C36.1081 11.376 36.0001 11.352 35.8921 11.304C35.7841 11.244 35.6461 11.16 35.4781 11.052C35.1781 10.86 34.8961 10.716 34.6321 10.62C34.3801 10.512 34.0741 10.458 33.7141 10.458C32.8981 10.458 32.2621 10.734 31.8061 11.286C31.3621 11.838 31.1401 12.606 31.1401 13.59C31.1401 14.574 31.3621 15.336 31.8061 15.876C32.2501 16.404 32.8801 16.668 33.6961 16.668C34.0561 16.668 34.3741 16.614 34.6501 16.506C34.9261 16.398 35.2081 16.254 35.4961 16.074C35.6281 15.99 35.7601 15.918 35.8921 15.858C36.0241 15.798 36.1441 15.768 36.2521 15.768C36.4201 15.768 36.5581 15.84 36.6661 15.984C36.7741 16.116 36.8281 16.284 36.8281 16.488C36.8281 16.656 36.7801 16.812 36.6841 16.956C36.6001 17.088 36.4501 17.226 36.2341 17.37C35.8741 17.61 35.4541 17.796 34.9741 17.928C34.4941 18.06 34.0081 18.126 33.5161 18.126ZM45.8353 16.578C46.0513 16.758 46.1593 16.98 46.1593 17.244C46.1593 17.472 46.0813 17.67 45.9253 17.838C45.7693 18.006 45.5833 18.09 45.3673 18.09C45.1393 18.09 44.9353 18.006 44.7553 17.838L40.2733 13.878V17.208C40.2733 17.496 40.1893 17.718 40.0213 17.874C39.8533 18.018 39.6373 18.09 39.3733 18.09C39.1093 18.09 38.8873 18.018 38.7073 17.874C38.5393 17.718 38.4553 17.496 38.4553 17.208V6.102C38.4553 5.814 38.5393 5.598 38.7073 5.454C38.8873 5.298 39.1093 5.22 39.3733 5.22C39.6373 5.22 39.8533 5.298 40.0213 5.454C40.1893 5.598 40.2733 5.814 40.2733 6.102V13.158L44.3773 9.324C44.5813 9.144 44.7793 9.054 44.9713 9.054C45.1993 9.054 45.3973 9.138 45.5653 9.306C45.7333 9.474 45.8173 9.672 45.8173 9.9C45.8173 10.128 45.7153 10.338 45.5113 10.53L42.3073 13.464L45.8353 16.578ZM60.1862 11.466C60.9182 11.67 61.4822 12.036 61.8782 12.564C62.2862 13.092 62.4902 13.752 62.4902 14.544C62.4902 15.636 62.1122 16.488 61.3562 17.1C60.6122 17.7 59.5682 18 58.2242 18H53.6342C53.3462 18 53.1182 17.922 52.9502 17.766C52.7942 17.598 52.7162 17.376 52.7162 17.1V6.21C52.7162 5.934 52.7942 5.718 52.9502 5.562C53.1182 5.394 53.3462 5.31 53.6342 5.31H58.0262C59.3342 5.31 60.3542 5.604 61.0862 6.192C61.8302 6.768 62.2022 7.578 62.2022 8.622C62.2022 9.294 62.0222 9.876 61.6622 10.368C61.3142 10.86 60.8222 11.226 60.1862 11.466ZM54.5342 10.8H57.7382C59.5142 10.8 60.4022 10.128 60.4022 8.784C60.4022 8.112 60.1802 7.614 59.7362 7.29C59.3042 6.966 58.6382 6.804 57.7382 6.804H54.5342V10.8ZM58.0262 16.506C58.9502 16.506 59.6282 16.338 60.0602 16.002C60.4922 15.666 60.7082 15.144 60.7082 14.436C60.7082 13.716 60.4862 13.182 60.0422 12.834C59.6102 12.474 58.9382 12.294 58.0262 12.294H54.5342V16.506H58.0262ZM68.5155 18.126C67.6515 18.126 66.8895 17.94 66.2295 17.568C65.5815 17.196 65.0775 16.668 64.7175 15.984C64.3695 15.288 64.1955 14.484 64.1955 13.572C64.1955 12.648 64.3695 11.844 64.7175 11.16C65.0775 10.464 65.5815 9.93 66.2295 9.558C66.8895 9.186 67.6515 9 68.5155 9C69.3795 9 70.1355 9.186 70.7835 9.558C71.4435 9.93 71.9475 10.464 72.2955 11.16C72.6555 11.844 72.8355 12.648 72.8355 13.572C72.8355 14.484 72.6555 15.288 72.2955 15.984C71.9475 16.668 71.4435 17.196 70.7835 17.568C70.1355 17.94 69.3795 18.126 68.5155 18.126ZM68.5155 16.686C69.3195 16.686 69.9315 16.422 70.3515 15.894C70.7835 15.366 70.9995 14.592 70.9995 13.572C70.9995 12.564 70.7835 11.796 70.3515 11.268C69.9195 10.728 69.3075 10.458 68.5155 10.458C67.7235 10.458 67.1115 10.728 66.6795 11.268C66.2475 11.796 66.0315 12.564 66.0315 13.572C66.0315 14.592 66.2415 15.366 66.6615 15.894C67.0935 16.422 67.7115 16.686 68.5155 16.686ZM78.6756 18.126C77.8116 18.126 77.0496 17.94 76.3896 17.568C75.7416 17.196 75.2376 16.668 74.8776 15.984C74.5296 15.288 74.3556 14.484 74.3556 13.572C74.3556 12.648 74.5296 11.844 74.8776 11.16C75.2376 10.464 75.7416 9.93 76.3896 9.558C77.0496 9.186 77.8116 9 78.6756 9C79.5396 9 80.2956 9.186 80.9436 9.558C81.6036 9.93 82.1076 10.464 82.4556 11.16C82.8156 11.844 82.9956 12.648 82.9956 13.572C82.9956 14.484 82.8156 15.288 82.4556 15.984C82.1076 16.668 81.6036 17.196 80.9436 17.568C80.2956 17.94 79.5396 18.126 78.6756 18.126ZM78.6756 16.686C79.4796 16.686 80.0916 16.422 80.5116 15.894C80.9436 15.366 81.1596 14.592 81.1596 13.572C81.1596 12.564 80.9436 11.796 80.5116 11.268C80.0796 10.728 79.4676 10.458 78.6756 10.458C77.8836 10.458 77.2716 10.728 76.8396 11.268C76.4076 11.796 76.1916 12.564 76.1916 13.572C76.1916 14.592 76.4016 15.366 76.8216 15.894C77.2536 16.422 77.8716 16.686 78.6756 16.686ZM92.3998 16.578C92.6158 16.758 92.7238 16.98 92.7238 17.244C92.7238 17.472 92.6458 17.67 92.4898 17.838C92.3338 18.006 92.1478 18.09 91.9318 18.09C91.7038 18.09 91.4998 18.006 91.3198 17.838L86.8378 13.878V17.208C86.8378 17.496 86.7538 17.718 86.5858 17.874C86.4178 18.018 86.2018 18.09 85.9378 18.09C85.6738 18.09 85.4518 18.018 85.2718 17.874C85.1038 17.718 85.0198 17.496 85.0198 17.208V6.102C85.0198 5.814 85.1038 5.598 85.2718 5.454C85.4518 5.298 85.6738 5.22 85.9378 5.22C86.2018 5.22 86.4178 5.298 86.5858 5.454C86.7538 5.598 86.8378 5.814 86.8378 6.102V13.158L90.9418 9.324C91.1458 9.144 91.3438 9.054 91.5358 9.054C91.7638 9.054 91.9618 9.138 92.1298 9.306C92.2978 9.474 92.3818 9.672 92.3818 9.9C92.3818 10.128 92.2798 10.338 92.0758 10.53L88.8718 13.464L92.3998 16.578ZM95.2366 18.09C94.9726 18.09 94.7506 18.018 94.5706 17.874C94.4026 17.73 94.3186 17.514 94.3186 17.226V9.918C94.3186 9.63 94.4026 9.414 94.5706 9.27C94.7506 9.114 94.9726 9.036 95.2366 9.036C95.5006 9.036 95.7166 9.114 95.8846 9.27C96.0526 9.414 96.1366 9.63 96.1366 9.918V17.226C96.1366 17.514 96.0526 17.73 95.8846 17.874C95.7166 18.018 95.5006 18.09 95.2366 18.09ZM95.2366 7.272C94.8886 7.272 94.6126 7.176 94.4086 6.984C94.2046 6.792 94.1026 6.54 94.1026 6.228C94.1026 5.916 94.2046 5.67 94.4086 5.49C94.6126 5.298 94.8886 5.202 95.2366 5.202C95.5726 5.202 95.8426 5.298 96.0466 5.49C96.2626 5.67 96.3706 5.916 96.3706 6.228C96.3706 6.54 96.2686 6.792 96.0646 6.984C95.8606 7.176 95.5846 7.272 95.2366 7.272ZM103.412 9C105.512 9 106.562 10.182 106.562 12.546V17.226C106.562 17.502 106.478 17.718 106.31 17.874C106.154 18.018 105.932 18.09 105.644 18.09C105.368 18.09 105.146 18.012 104.978 17.856C104.822 17.7 104.744 17.49 104.744 17.226V12.636C104.744 11.892 104.594 11.346 104.294 10.998C104.006 10.65 103.55 10.476 102.926 10.476C102.194 10.476 101.606 10.704 101.162 11.16C100.718 11.616 100.496 12.228 100.496 12.996V17.226C100.496 17.49 100.412 17.7 100.244 17.856C100.088 18.012 99.872 18.09 99.596 18.09C99.32 18.09 99.098 18.012 98.93 17.856C98.762 17.7 98.678 17.49 98.678 17.226V9.9C98.678 9.648 98.762 9.444 98.93 9.288C99.11 9.12 99.332 9.036 99.596 9.036C99.86 9.036 100.07 9.114 100.226 9.27C100.382 9.426 100.46 9.63 100.46 9.882V10.62C100.748 10.092 101.15 9.69 101.666 9.414C102.182 9.138 102.764 9 103.412 9ZM116.321 9.036C116.597 9.036 116.813 9.12 116.969 9.288C117.137 9.444 117.221 9.654 117.221 9.918V17.298C117.221 18.642 116.861 19.656 116.141 20.34C115.433 21.024 114.383 21.366 112.991 21.366C111.695 21.366 110.615 21.12 109.751 20.628C109.307 20.376 109.085 20.076 109.085 19.728C109.085 19.524 109.139 19.356 109.247 19.224C109.367 19.092 109.511 19.026 109.679 19.026C109.835 19.026 110.081 19.116 110.417 19.296C110.849 19.5 111.251 19.656 111.623 19.764C111.995 19.884 112.439 19.944 112.955 19.944C114.611 19.944 115.439 19.11 115.439 17.442V16.056C115.187 16.584 114.803 16.998 114.287 17.298C113.771 17.586 113.171 17.73 112.487 17.73C111.719 17.73 111.035 17.55 110.435 17.19C109.835 16.83 109.367 16.32 109.031 15.66C108.707 15 108.545 14.238 108.545 13.374C108.545 12.51 108.713 11.748 109.049 11.088C109.385 10.428 109.847 9.918 110.435 9.558C111.035 9.186 111.719 9 112.487 9C113.159 9 113.747 9.144 114.251 9.432C114.767 9.72 115.157 10.128 115.421 10.656V9.9C115.421 9.636 115.499 9.426 115.655 9.27C115.823 9.114 116.045 9.036 116.321 9.036ZM112.919 16.29C113.699 16.29 114.311 16.032 114.755 15.516C115.199 15 115.421 14.286 115.421 13.374C115.421 12.474 115.199 11.766 114.755 11.25C114.323 10.722 113.711 10.458 112.919 10.458C112.127 10.458 111.503 10.716 111.047 11.232C110.603 11.748 110.381 12.462 110.381 13.374C110.381 14.286 110.609 15 111.065 15.516C111.521 16.032 112.139 16.29 112.919 16.29Z" fill="white"/>
<path d="M249.928 16.47C250.216 16.47 250.432 16.536 250.576 16.668C250.72 16.8 250.792 16.986 250.792 17.226C250.792 17.742 250.504 18 249.928 18H243.916C243.328 18 243.034 17.742 243.034 17.226C243.034 16.986 243.106 16.8 243.25 16.668C243.406 16.536 243.628 16.47 243.916 16.47H245.986V7.488L244.132 8.658C244.012 8.73 243.892 8.766 243.772 8.766C243.568 8.766 243.388 8.676 243.232 8.496C243.088 8.316 243.016 8.112 243.016 7.884C243.016 7.608 243.136 7.392 243.376 7.236L246.148 5.472C246.424 5.304 246.688 5.22 246.94 5.22C247.204 5.22 247.42 5.304 247.588 5.472C247.756 5.64 247.84 5.868 247.84 6.156V16.47H249.928ZM260.847 16.47C261.135 16.47 261.351 16.536 261.495 16.668C261.651 16.8 261.729 16.986 261.729 17.226C261.729 17.742 261.435 18 260.847 18H253.899C253.635 18 253.425 17.928 253.269 17.784C253.125 17.628 253.053 17.436 253.053 17.208C253.053 16.932 253.161 16.68 253.377 16.452L257.607 11.826C258.171 11.214 258.579 10.656 258.831 10.152C259.083 9.648 259.209 9.15 259.209 8.658C259.209 8.022 259.023 7.536 258.651 7.2C258.291 6.852 257.775 6.678 257.103 6.678C256.083 6.678 255.069 7.068 254.061 7.848C253.929 7.932 253.815 7.998 253.719 8.046C253.635 8.082 253.545 8.1 253.449 8.1C253.281 8.1 253.137 8.022 253.017 7.866C252.897 7.71 252.837 7.524 252.837 7.308C252.837 7.008 252.957 6.768 253.197 6.588C253.701 6.156 254.307 5.814 255.015 5.562C255.723 5.298 256.437 5.166 257.157 5.166C258.345 5.166 259.287 5.472 259.983 6.084C260.691 6.684 261.045 7.5 261.045 8.532C261.045 9.264 260.883 9.96 260.559 10.62C260.247 11.28 259.719 12.018 258.975 12.834L255.573 16.47H260.847ZM271.514 16.47C271.802 16.47 272.018 16.536 272.162 16.668C272.306 16.8 272.378 16.986 272.378 17.226C272.378 17.742 272.09 18 271.514 18H265.502C264.914 18 264.62 17.742 264.62 17.226C264.62 16.986 264.692 16.8 264.836 16.668C264.992 16.536 265.214 16.47 265.502 16.47H267.572V7.488L265.718 8.658C265.598 8.73 265.478 8.766 265.358 8.766C265.154 8.766 264.974 8.676 264.818 8.496C264.674 8.316 264.602 8.112 264.602 7.884C264.602 7.608 264.722 7.392 264.962 7.236L267.734 5.472C268.01 5.304 268.274 5.22 268.526 5.22C268.79 5.22 269.006 5.304 269.174 5.472C269.342 5.64 269.426 5.868 269.426 6.156V16.47H271.514ZM278.779 18.144C277.303 18.144 276.175 17.592 275.395 16.488C274.627 15.384 274.243 13.776 274.243 11.664C274.243 9.54 274.627 7.926 275.395 6.822C276.175 5.718 277.303 5.166 278.779 5.166C280.255 5.166 281.377 5.718 282.145 6.822C282.925 7.914 283.315 9.522 283.315 11.646C283.315 13.77 282.925 15.384 282.145 16.488C281.377 17.592 280.255 18.144 278.779 18.144ZM278.779 16.65C279.703 16.65 280.381 16.248 280.813 15.444C281.245 14.64 281.461 13.374 281.461 11.646C281.461 9.918 281.245 8.658 280.813 7.866C280.381 7.062 279.703 6.66 278.779 6.66C277.855 6.66 277.177 7.062 276.745 7.866C276.313 8.658 276.097 9.918 276.097 11.646C276.097 13.362 276.313 14.628 276.745 15.444C277.177 16.248 277.855 16.65 278.779 16.65ZM289.572 18.144C288.096 18.144 286.968 17.592 286.188 16.488C285.42 15.384 285.036 13.776 285.036 11.664C285.036 9.54 285.42 7.926 286.188 6.822C286.968 5.718 288.096 5.166 289.572 5.166C291.048 5.166 292.17 5.718 292.938 6.822C293.718 7.914 294.108 9.522 294.108 11.646C294.108 13.77 293.718 15.384 292.938 16.488C292.17 17.592 291.048 18.144 289.572 18.144ZM289.572 16.65C290.496 16.65 291.174 16.248 291.606 15.444C292.038 14.64 292.254 13.374 292.254 11.646C292.254 9.918 292.038 8.658 291.606 7.866C291.174 7.062 290.496 6.66 289.572 6.66C288.648 6.66 287.97 7.062 287.538 7.866C287.106 8.658 286.89 9.918 286.89 11.646C286.89 13.362 287.106 14.628 287.538 15.444C287.97 16.248 288.648 16.65 289.572 16.65Z" fill="white"/>
<g clip-path="url(#clip0)">
<path d="M230.667 19.3583C230.608 19.3583 230.55 19.3583 230.492 19.3583C228.625 19.125 226.758 18.4833 225.183 17.4917C223.725 16.5583 222.442 15.275 221.508 13.8167C220.458 12.2417 219.817 10.375 219.642 8.50833C219.642 8.04167 219.758 7.575 220.05 7.225C220.342 6.875 220.75 6.64167 221.217 6.58333C221.275 6.58333 221.333 6.58333 221.392 6.58333H223.142C224.017 6.58333 224.775 7.225 224.892 8.1C224.95 8.625 225.067 9.15 225.242 9.61667C225.475 10.2583 225.3 10.9583 224.833 11.4833L224.425 11.8917C225.125 12.9417 226 13.875 227.108 14.575L227.517 14.1667C227.983 13.7 228.742 13.525 229.383 13.7583C229.85 13.9333 230.375 14.05 230.9 14.1083C231.775 14.225 232.417 14.9833 232.417 15.8583V17.6083C232.417 18.075 232.242 18.5417 231.892 18.8333C231.542 19.125 231.133 19.3583 230.667 19.3583ZM223.142 7.75H221.392C221.217 7.75 221.042 7.86667 220.925 7.98333C220.867 8.1 220.808 8.21667 220.808 8.39167C220.983 10.0833 221.567 11.7167 222.5 13.175C223.375 14.5167 224.483 15.6833 225.825 16.5C227.283 17.4333 228.917 18.0167 230.608 18.1917C230.842 18.1917 230.958 18.1333 231.075 18.0167C231.192 17.9 231.25 17.7833 231.25 17.6083V15.8583C231.25 15.5667 231.017 15.3333 230.725 15.275C230.142 15.2167 229.558 15.0417 228.975 14.8083C228.742 14.75 228.508 14.75 228.333 14.925L227.575 15.6833C227.4 15.8583 227.108 15.9167 226.875 15.8C225.3 14.925 224.017 13.6417 223.142 12.0667C223.083 11.8333 223.142 11.5417 223.317 11.3667L224.075 10.6083C224.192 10.4917 224.25 10.2 224.192 10.025C223.958 9.44167 223.842 8.85833 223.725 8.275C223.725 7.98333 223.433 7.75 223.142 7.75ZM230.083 11.8333C229.792 11.8333 229.558 11.6583 229.5 11.3667C229.325 10.4333 228.567 9.73333 227.633 9.5C227.342 9.44167 227.108 9.15 227.167 8.8C227.225 8.50833 227.517 8.275 227.867 8.33333C229.267 8.625 230.375 9.675 230.608 11.075C230.667 11.3667 230.492 11.7167 230.142 11.775C230.142 11.775 230.142 11.8333 230.083 11.8333ZM232.417 11.775C232.125 11.775 231.892 11.5417 231.833 11.25C231.6 9.09167 229.908 7.4 227.692 7.10833C227.4 7.05 227.167 6.75833 227.167 6.46667C227.167 6.175 227.517 5.94167 227.808 5.94167C230.55 6.23333 232.65 8.33333 232.942 11.075C233 11.3667 232.767 11.6583 232.417 11.7167C232.475 11.775 232.417 11.775 232.417 11.775Z" fill="white"/>
</g>
<defs>
<clipPath id="clip0">
<rect width="14" height="14" fill="white" transform="translate(219 6)"/>
</clipPath>
</defs>
</svg>
